/* XPM */
static char *zapalniczka[] = {
/* columns rows colors chars-per-pixel */
"32 40 16 1 ",
"  c black",
". c #202020",
"X c gray19",
"o c #4D0000",
"O c #590000",
"+ c gray27",
"@ c #860000",
"# c #9E0000",
"$ c #B60000",
"% c #CF0000",
"& c #E70000",
"* c red",
"= c #FF4100",
"- c #868686",
"; c #AAAAAA",
": c None",
/* pixels */
"::::::::::::::::::::::::::::::::",
"::::::::::::::::::::::::::::::::",
"::::::::::::::::::::::::::::::::",
"::::::::::::::::::::::::::::::::",
"::::::::::::::::::::::::::::::::",
"::::::::::::::::::::::#:::::::::",
":::::::::::::::::::::##:::::::::",
":::::::::::::::::::::@@$::::::::",
"::::::::::::::::::::@$$$$:::::::",
":::::::: ::::::::::$$%&%%:::::::",
"::::::: . :::::::::$%***%:::::::",
":::::: ... :::::::::$*=%::::::::",
"::::: ..... :::::::      :::::::",
":::: .....XX :::::: ;;;;  :  :::",
"::: .....XXXX ::::: -;-;   +X ::",
":::: ..X.XXXXX    : ;;;;   X+ ::",
"::::: .XXXXXXX      ;-;-  :  :::",
":::::: XXXXXXX      ;;;; : :::::",
"::::::: XXXXXX ::             ::",
":::::::: XXXX ::: ........XXX ::",
"::::::::: XX :::: .....XXXXXX ::",
"::::::::::  ::::: ...XXXXXXXX ::",
"::::::::::::::::: ..   X   XX ::",
"::::::::::::::::: .         X ::",
"::::::::::::::::: ..   O   XX ::",
"::::::::::::::::: ..X OOO XXX ::",
"::::::::::::::::: ..XX O XXXX ::",
"::::::::::::::::: ..XXX XXXXX ::",
"::::::::::::::::: .XXXX XXXXX ::",
"::::::::::::::::: .XXXoooXXXX ::",
"::::::::::::::::: .XXXXoXXXXX ::",
"::::::::::::::::: XXXXXXXXXXX ::",
"::::::::::::::::: XXXXXXXXXXX ::",
"::::::::::::::::: XXXXXXXXXXX ::",
"::::::::::::::::: XXXXXXXXXXX ::",
"::::::::::::::::: XXXXXXXXXXX ::",
"::::::::::::::::: XXXXXXXXXXX ::",
":::::::::::::::::             ::",
"::::::::::::::::::::::::::::::::",
"::::::::::::::::::::::::::::::::"
};
